<?xml version="1.0" standalone="no"?>
<!DOCTYPE svg PUBLIC "-//W3C//DTD SVG 20010904//EN"
 "http://www.w3.org/TR/2001/REC-SVG-20010904/DTD/svg10.dtd">
<svg version="1.0" xmlns="http://www.w3.org/2000/svg"
 width="484.000000pt" height="415.000000pt" viewBox="0 0 484.000000 415.000000"
 preserveAspectRatio="xMidYMid meet">

<g transform="translate(0.000000,415.000000) scale(0.100000,-0.100000)"
fill="#000000" stroke="none">
<path d="M1951 3948 c-78 -53 -100 -130 -59 -207 73 -141 291 -86 291 73 0 85
-59 147 -147 154 -41 3 -57 -1 -85 -20z"/>
<path d="M2655 3630 c-460 -51 -1034 -217 -1243 -358 -81 -56 -121 -97 -165
-169 -111 -183 -81 -409 74 -563 49 -48 155 -118 164 -108 1 1 21 40 44 85
l40 81 -43 26 c-161 94 -194 309 -67 436 74 74 244 157 446 219 39 12 78 24
87 27 14 4 12 -6 -12 -53 -17 -32 -40 -94 -52 -138 -22 -79 -22 -90 -28 -1125
-6 -1163 -2 -1085 -77 -1240 -66 -137 -215 -263 -380 -321 -81 -29 -262 -37
-362 -15 -257 54 -483 279 -548 544 -25 101 -22 258 6 356 38 135 93 229 196
332 97 98 183 150 320 195 65 21 91 23 357 27 l287 4 6 41 c4 23 5 67 3 97
l-3 55 -285 -1 c-257 0 -293 -2 -372 -22 -178 -44 -314 -118 -442 -241 -133
-129 -222 -277 -267 -446 -32 -119 -32 -326 0 -450 130 -501 625 -800 1119
-674 250 63 476 255 571 482 67 162 64 115 71 1262 6 1010 6 1042 26 1106 85
275 264 360 759 362 226 0 330 -12 494 -59 565 -164 983 -625 1087 -1199 25
-139 25 -385 0 -520 -114 -614 -574 -1081 -1208 -1227 -87 -20 -126 -21 -642
-25 l-548 -5 -62 -62 c-33 -34 -81 -79 -106 -99 l-45 -37 555 0 c581 0 727 7
890 40 526 107 977 452 1210 925 74 150 113 264 145 419 78 377 18 789 -167
1136 -239 450 -684 776 -1204 881 -88 17 -151 22 -329 25 -121 1 -256 -1 -300
-6z"/>
<path d="M2490 1926 l0 -1116 268 0 c368 0 495 18 680 98 298 129 524 396 608
719 38 144 45 385 15 531 -63 302 -217 541 -453 701 -81 54 -228 120 -333 148
-98 26 -108 27 -442 31 l-343 3 0 -1115z m724 890 c324 -84 545 -306 633 -633
23 -85 27 -118 27 -253 1 -129 -3 -170 -22 -245 -29 -116 -106 -273 -175 -356
-107 -128 -272 -235 -442 -284 -102 -29 -294 -48 -445 -43 l-95 3 -3 924 -2
924 212 -6 c186 -4 225 -8 312 -31z"/>
</g>
</svg>
